<mxfile host="drawio-plugin" agent="Mozilla/5.0 (Windows NT 10.0; Win64; x64) AppleWebKit/537.36 (KHTML, like Gecko) Chrome/122.0.0.0 Safari/537.36" modified="2024-09-02T10:50:50.359Z" version="22.1.22" etag="Kn4X6e7frK3F1ynV0cOW" type="embed">
  <diagram name="Страница — 1" id="wi7aKD_4erOyHrj6TKSx">
    <mxGraphModel dx="466" dy="217" grid="1" gridSize="10" guides="1" tooltips="1" connect="1" arrows="1" fold="1" page="1" pageScale="1" pageWidth="827" pageHeight="1169" math="0" shadow="0">
      <root>
        <mxCell id="0" />
        <mxCell id="1" parent="0" />
        <mxCell id="Jx2_3xveDHQ-atTdmp-k-2" value="START" style="rounded=1;whiteSpace=wrap;html=1;" parent="1" vertex="1">
          <mxGeometry x="320" y="40" width="120" height="40" as="geometry" />
        </mxCell>
        <mxCell id="Jx2_3xveDHQ-atTdmp-k-3" value="a (int)&lt;div&gt;&quot;Enter a number&quot;&lt;/div&gt;" style="shape=card;whiteSpace=wrap;html=1;" parent="1" vertex="1">
          <mxGeometry x="320" y="120" width="120" height="40" as="geometry" />
        </mxCell>
        <mxCell id="Jx2_3xveDHQ-atTdmp-k-15" style="edgeStyle=orthogonalEdgeStyle;rounded=0;orthogonalLoop=1;jettySize=auto;html=1;entryX=0.5;entryY=0;entryDx=0;entryDy=0;" parent="1" source="Jx2_3xveDHQ-atTdmp-k-4" target="Jx2_3xveDHQ-atTdmp-k-5" edge="1">
          <mxGeometry relative="1" as="geometry" />
        </mxCell>
        <mxCell id="Jx2_3xveDHQ-atTdmp-k-4" value="b (int)&lt;div&gt;&quot;Enter a number&quot;&lt;/div&gt;" style="shape=card;whiteSpace=wrap;html=1;" parent="1" vertex="1">
          <mxGeometry x="320" y="200" width="120" height="40" as="geometry" />
        </mxCell>
        <mxCell id="Jx2_3xveDHQ-atTdmp-k-5" value="a&amp;gt;b" style="rhombus;whiteSpace=wrap;html=1;" parent="1" vertex="1">
          <mxGeometry x="340" y="280" width="80" height="80" as="geometry" />
        </mxCell>
        <mxCell id="Jx2_3xveDHQ-atTdmp-k-6" value="print (a)" style="shape=document;whiteSpace=wrap;html=1;boundedLbl=1;" parent="1" vertex="1">
          <mxGeometry x="480" y="400" width="80" height="50" as="geometry" />
        </mxCell>
        <mxCell id="Jx2_3xveDHQ-atTdmp-k-7" value="print (b)" style="shape=document;whiteSpace=wrap;html=1;boundedLbl=1;" parent="1" vertex="1">
          <mxGeometry x="200" y="400" width="80" height="50" as="geometry" />
        </mxCell>
        <mxCell id="Jx2_3xveDHQ-atTdmp-k-8" value="no" style="endArrow=classic;html=1;rounded=0;entryX=0.5;entryY=0;entryDx=0;entryDy=0;exitX=0;exitY=1;exitDx=0;exitDy=0;" parent="1" source="Jx2_3xveDHQ-atTdmp-k-5" target="Jx2_3xveDHQ-atTdmp-k-7" edge="1">
          <mxGeometry width="50" height="50" relative="1" as="geometry">
            <mxPoint x="320" y="360" as="sourcePoint" />
            <mxPoint x="360" y="340" as="targetPoint" />
          </mxGeometry>
        </mxCell>
        <mxCell id="Jx2_3xveDHQ-atTdmp-k-9" value="yes" style="endArrow=classic;html=1;rounded=0;entryX=0.5;entryY=0;entryDx=0;entryDy=0;" parent="1" source="Jx2_3xveDHQ-atTdmp-k-5" target="Jx2_3xveDHQ-atTdmp-k-6" edge="1">
          <mxGeometry width="50" height="50" relative="1" as="geometry">
            <mxPoint x="430" y="390" as="sourcePoint" />
            <mxPoint x="480" y="340" as="targetPoint" />
          </mxGeometry>
        </mxCell>
        <mxCell id="Jx2_3xveDHQ-atTdmp-k-10" value="STOP" style="rounded=1;whiteSpace=wrap;html=1;" parent="1" vertex="1">
          <mxGeometry x="320" y="480" width="120" height="40" as="geometry" />
        </mxCell>
        <mxCell id="Jx2_3xveDHQ-atTdmp-k-11" value="" style="endArrow=classic;html=1;rounded=0;exitX=0.5;exitY=0.947;exitDx=0;exitDy=0;exitPerimeter=0;entryX=0;entryY=0.5;entryDx=0;entryDy=0;" parent="1" source="Jx2_3xveDHQ-atTdmp-k-7" target="Jx2_3xveDHQ-atTdmp-k-10" edge="1">
          <mxGeometry width="50" height="50" relative="1" as="geometry">
            <mxPoint x="240" y="510" as="sourcePoint" />
            <mxPoint x="290" y="460" as="targetPoint" />
          </mxGeometry>
        </mxCell>
        <mxCell id="Jx2_3xveDHQ-atTdmp-k-12" value="" style="endArrow=classic;html=1;rounded=0;exitX=0.467;exitY=0.973;exitDx=0;exitDy=0;exitPerimeter=0;entryX=1;entryY=0.5;entryDx=0;entryDy=0;" parent="1" source="Jx2_3xveDHQ-atTdmp-k-6" target="Jx2_3xveDHQ-atTdmp-k-10" edge="1">
          <mxGeometry width="50" height="50" relative="1" as="geometry">
            <mxPoint x="470" y="473.5" as="sourcePoint" />
            <mxPoint x="550" y="526.5" as="targetPoint" />
          </mxGeometry>
        </mxCell>
        <mxCell id="Jx2_3xveDHQ-atTdmp-k-13" style="edgeStyle=orthogonalEdgeStyle;rounded=0;orthogonalLoop=1;jettySize=auto;html=1;entryX=0.5;entryY=0;entryDx=0;entryDy=0;entryPerimeter=0;" parent="1" source="Jx2_3xveDHQ-atTdmp-k-2" target="Jx2_3xveDHQ-atTdmp-k-3" edge="1">
          <mxGeometry relative="1" as="geometry" />
        </mxCell>
        <mxCell id="Jx2_3xveDHQ-atTdmp-k-14" style="edgeStyle=orthogonalEdgeStyle;rounded=0;orthogonalLoop=1;jettySize=auto;html=1;entryX=0.5;entryY=0;entryDx=0;entryDy=0;entryPerimeter=0;" parent="1" source="Jx2_3xveDHQ-atTdmp-k-3" target="Jx2_3xveDHQ-atTdmp-k-4" edge="1">
          <mxGeometry relative="1" as="geometry" />
        </mxCell>
      </root>
    </mxGraphModel>
  </diagram>
</mxfile>
